<?xml version="1.0" encoding="UTF-8" standalone="no"?>
<!DOCTYPE svg PUBLIC "-//W3C//DTD SVG 1.1//EN"
 "http://www.w3.org/Graphics/SVG/1.1/DTD/svg11.dtd">
<!-- Generated by graphviz version 2.47.0 (20210316.0004)
 -->
<!-- Title: dependencies Pages: 1 -->
<svg width="504pt" height="211pt"
 viewBox="0.00 0.00 504.00 211.00" xmlns="http://www.w3.org/2000/svg" xmlns:xlink="http://www.w3.org/1999/xlink">
<g id="graph0" class="graph" transform="scale(1 1) rotate(0) translate(4 207)">
<title>dependencies</title>
<polygon fill="white" stroke="transparent" points="-4,4 -4,-207 500,-207 500,4 -4,4"/>
<text text-anchor="start" x="227.01" y="-42.4" font-family="Times-12" font-weight="bold" font-size="14.00">Legend</text>
<polygon fill="#ffffb3" stroke="transparent" points="14,-10 14,-30 34,-30 34,-10 14,-10"/>
<text text-anchor="start" x="37.63" y="-15.4" font-family="Times-12" font-size="14.00"> &#160;Declarations</text>
<polygon fill="#8dd3c7" stroke="transparent" points="127,-10 127,-30 147,-30 147,-10 127,-10"/>
<text text-anchor="start" x="150.73" y="-15.4" font-family="Times-12" font-size="14.00"> &#160;Module</text>
<polygon fill="#80b1d3" stroke="transparent" points="213,-10 213,-30 233,-30 233,-10 213,-10"/>
<text text-anchor="start" x="236.78" y="-15.4" font-family="Times-12" font-size="14.00"> &#160;Bootstrap</text>
<polygon fill="#fdb462" stroke="transparent" points="310,-10 310,-30 330,-30 330,-10 310,-10"/>
<text text-anchor="start" x="333.67" y="-15.4" font-family="Times-12" font-size="14.00"> &#160;Providers</text>
<polygon fill="#fb8072" stroke="transparent" points="406,-10 406,-30 426,-30 426,-10 406,-10"/>
<text text-anchor="start" x="429.73" y="-15.4" font-family="Times-12" font-size="14.00"> &#160;Exports</text>
<g id="clust1" class="cluster">
<title>cluster_AiModule</title>
<polygon fill="none" stroke="black" stroke-dasharray="1,5" points="88.5,-70 88.5,-195 407.5,-195 407.5,-70 88.5,-70"/>
</g>
<g id="clust6" class="cluster">
<title>cluster_AiModule_providers</title>
<polygon fill="none" stroke="black" points="96.5,-78 96.5,-130 399.5,-130 399.5,-78 96.5,-78"/>
</g>
<!-- AiService -->
<g id="node1" class="node">
<title>AiService</title>
<ellipse fill="#fdb462" stroke="black" cx="341.5" cy="-104" rx="49.79" ry="18"/>
<text text-anchor="middle" x="341.5" y="-99.8" font-family="Times,serif" font-size="14.00">AiService</text>
</g>
<!-- AiModule -->
<g id="node3" class="node">
<title>AiModule</title>
<polygon fill="#8dd3c7" stroke="black" points="302.05,-187 299.05,-191 278.05,-191 275.05,-187 228.95,-187 228.95,-151 302.05,-151 302.05,-187"/>
<text text-anchor="middle" x="265.5" y="-164.8" font-family="Times,serif" font-size="14.00">AiModule</text>
</g>
<!-- AiService&#45;&gt;AiModule -->
<g id="edge1" class="edge">
<title>AiService&#45;&gt;AiModule</title>
<path fill="none" stroke="black" d="M297.06,-112.23C297.06,-112.23 297.06,-140.76 297.06,-140.76"/>
<polygon fill="black" stroke="black" points="293.56,-140.76 297.06,-150.76 300.56,-140.76 293.56,-140.76"/>
</g>
<!-- GenerateQuestions -->
<g id="node2" class="node">
<title>GenerateQuestions</title>
<ellipse fill="#fdb462" stroke="black" cx="189.5" cy="-104" rx="84.51" ry="18"/>
<text text-anchor="middle" x="189.5" y="-99.8" font-family="Times,serif" font-size="14.00">GenerateQuestions</text>
</g>
<!-- GenerateQuestions&#45;&gt;AiModule -->
<g id="edge2" class="edge">
<title>GenerateQuestions&#45;&gt;AiModule</title>
<path fill="none" stroke="black" d="M251.37,-116.53C251.37,-116.53 251.37,-140.85 251.37,-140.85"/>
<polygon fill="black" stroke="black" points="247.87,-140.85 251.37,-150.85 254.87,-140.85 247.87,-140.85"/>
</g>
</g>
</svg>
