<?xml version="1.0" encoding="UTF-8" standalone="no"?>
<!DOCTYPE svg PUBLIC "-//W3C//DTD SVG 1.1//EN"
 "http://www.w3.org/Graphics/SVG/1.1/DTD/svg11.dtd">
<!-- Generated by graphviz version 2.47.0 (20210316.0004)
 -->
<!-- Title: dependencies Pages: 1 -->
<svg width="594pt" height="211pt"
 viewBox="0.00 0.00 594.00 211.00" xmlns="http://www.w3.org/2000/svg" xmlns:xlink="http://www.w3.org/1999/xlink">
<g id="graph0" class="graph" transform="scale(1 1) rotate(0) translate(4 207)">
<title>dependencies</title>
<polygon fill="white" stroke="transparent" points="-4,4 -4,-207 590,-207 590,4 -4,4"/>
<text text-anchor="start" x="272.01" y="-42.4" font-family="Times-12" font-weight="bold" font-size="14.00">Legend</text>
<polygon fill="#ffffb3" stroke="transparent" points="59,-10 59,-30 79,-30 79,-10 59,-10"/>
<text text-anchor="start" x="82.63" y="-15.4" font-family="Times-12" font-size="14.00"> &#160;Declarations</text>
<polygon fill="#8dd3c7" stroke="transparent" points="172,-10 172,-30 192,-30 192,-10 172,-10"/>
<text text-anchor="start" x="195.73" y="-15.4" font-family="Times-12" font-size="14.00"> &#160;Module</text>
<polygon fill="#80b1d3" stroke="transparent" points="258,-10 258,-30 278,-30 278,-10 258,-10"/>
<text text-anchor="start" x="281.78" y="-15.4" font-family="Times-12" font-size="14.00"> &#160;Bootstrap</text>
<polygon fill="#fdb462" stroke="transparent" points="355,-10 355,-30 375,-30 375,-10 355,-10"/>
<text text-anchor="start" x="378.67" y="-15.4" font-family="Times-12" font-size="14.00"> &#160;Providers</text>
<polygon fill="#fb8072" stroke="transparent" points="451,-10 451,-30 471,-30 471,-10 451,-10"/>
<text text-anchor="start" x="474.73" y="-15.4" font-family="Times-12" font-size="14.00"> &#160;Exports</text>
<g id="clust1" class="cluster">
<title>cluster_AppModule</title>
<polygon fill="none" stroke="black" stroke-dasharray="1,5" points="8,-70 8,-195 578,-195 578,-70 8,-70"/>
</g>
<g id="clust3" class="cluster">
<title>cluster_AppModule_imports</title>
<polygon fill="none" stroke="black" points="154,-78 154,-130 570,-130 570,-78 154,-78"/>
</g>
<g id="clust6" class="cluster">
<title>cluster_AppModule_providers</title>
<polygon fill="none" stroke="black" points="16,-78 16,-130 146,-130 146,-78 16,-78"/>
</g>
<!-- AiModule -->
<g id="node1" class="node">
<title>AiModule</title>
<polygon fill="#8dd3c7" stroke="black" points="561.55,-122 558.55,-126 537.55,-126 534.55,-122 488.45,-122 488.45,-86 561.55,-86 561.55,-122"/>
<text text-anchor="middle" x="525" y="-99.8" font-family="Times,serif" font-size="14.00">AiModule</text>
</g>
<!-- AppModule -->
<g id="node4" class="node">
<title>AppModule</title>
<polygon fill="#8dd3c7" stroke="black" points="337.66,-187 334.66,-191 313.66,-191 310.66,-187 254.34,-187 254.34,-151 337.66,-151 337.66,-187"/>
<text text-anchor="middle" x="296" y="-164.8" font-family="Times,serif" font-size="14.00">AppModule</text>
</g>
<!-- AiModule&#45;&gt;AppModule -->
<g id="edge1" class="edge">
<title>AiModule&#45;&gt;AppModule</title>
<path fill="none" stroke="black" d="M525,-122.11C525,-141.34 525,-169 525,-169 525,-169 347.74,-169 347.74,-169"/>
<polygon fill="black" stroke="black" points="347.74,-165.5 337.74,-169 347.74,-172.5 347.74,-165.5"/>
</g>
<!-- GoogleAuthenticationModule -->
<g id="node2" class="node">
<title>GoogleAuthenticationModule</title>
<polygon fill="#8dd3c7" stroke="black" points="469.97,-122 466.97,-126 445.97,-126 442.97,-122 286.03,-122 286.03,-86 469.97,-86 469.97,-122"/>
<text text-anchor="middle" x="378" y="-99.8" font-family="Times,serif" font-size="14.00">GoogleAuthenticationModule</text>
</g>
<!-- GoogleAuthenticationModule&#45;&gt;AppModule -->
<g id="edge2" class="edge">
<title>GoogleAuthenticationModule&#45;&gt;AppModule</title>
<path fill="none" stroke="black" d="M311.92,-122.11C311.92,-122.11 311.92,-140.99 311.92,-140.99"/>
<polygon fill="black" stroke="black" points="308.42,-140.99 311.92,-150.99 315.42,-140.99 308.42,-140.99"/>
</g>
<!-- JwtAuthModule -->
<g id="node3" class="node">
<title>JwtAuthModule</title>
<polygon fill="#8dd3c7" stroke="black" points="268.49,-122 265.49,-126 244.49,-126 241.49,-122 161.51,-122 161.51,-86 268.49,-86 268.49,-122"/>
<text text-anchor="middle" x="215" y="-99.8" font-family="Times,serif" font-size="14.00">JwtAuthModule</text>
</g>
<!-- JwtAuthModule&#45;&gt;AppModule -->
<g id="edge3" class="edge">
<title>JwtAuthModule&#45;&gt;AppModule</title>
<path fill="none" stroke="black" d="M261.33,-122.11C261.33,-122.11 261.33,-140.99 261.33,-140.99"/>
<polygon fill="black" stroke="black" points="257.83,-140.99 261.33,-150.99 264.83,-140.99 257.83,-140.99"/>
</g>
<!-- AppService -->
<g id="node5" class="node">
<title>AppService</title>
<ellipse fill="#fdb462" stroke="black" cx="81" cy="-104" rx="56.74" ry="18"/>
<text text-anchor="middle" x="81" y="-99.8" font-family="Times,serif" font-size="14.00">AppService</text>
</g>
<!-- AppService&#45;&gt;AppModule -->
<g id="edge4" class="edge">
<title>AppService&#45;&gt;AppModule</title>
<path fill="none" stroke="black" d="M81,-122.11C81,-141.34 81,-169 81,-169 81,-169 244.29,-169 244.29,-169"/>
<polygon fill="black" stroke="black" points="244.29,-172.5 254.29,-169 244.29,-165.5 244.29,-172.5"/>
</g>
</g>
</svg>
