<?xml version="1.0" encoding="UTF-8" standalone="no"?>
<!DOCTYPE svg PUBLIC "-//W3C//DTD SVG 1.1//EN"
 "http://www.w3.org/Graphics/SVG/1.1/DTD/svg11.dtd">
<!-- Generated by graphviz version 2.47.0 (20210316.0004)
 -->
<!-- Title: dependencies Pages: 1 -->
<svg width="1237pt" height="279pt"
 viewBox="0.00 0.00 1237.00 279.00" xmlns="http://www.w3.org/2000/svg" xmlns:xlink="http://www.w3.org/1999/xlink">
<g id="graph0" class="graph" transform="scale(1 1) rotate(0) translate(4 275)">
<title>dependencies</title>
<polygon fill="white" stroke="transparent" points="-4,4 -4,-275 1233,-275 1233,4 -4,4"/>
<text text-anchor="start" x="593.51" y="-42.4" font-family="Times-12" font-weight="bold" font-size="14.00">Legend</text>
<polygon fill="#ffffb3" stroke="transparent" points="380.5,-10 380.5,-30 400.5,-30 400.5,-10 380.5,-10"/>
<text text-anchor="start" x="404.13" y="-15.4" font-family="Times-12" font-size="14.00"> &#160;Declarations</text>
<polygon fill="#8dd3c7" stroke="transparent" points="493.5,-10 493.5,-30 513.5,-30 513.5,-10 493.5,-10"/>
<text text-anchor="start" x="517.23" y="-15.4" font-family="Times-12" font-size="14.00"> &#160;Module</text>
<polygon fill="#80b1d3" stroke="transparent" points="579.5,-10 579.5,-30 599.5,-30 599.5,-10 579.5,-10"/>
<text text-anchor="start" x="603.28" y="-15.4" font-family="Times-12" font-size="14.00"> &#160;Bootstrap</text>
<polygon fill="#fdb462" stroke="transparent" points="676.5,-10 676.5,-30 696.5,-30 696.5,-10 676.5,-10"/>
<text text-anchor="start" x="700.17" y="-15.4" font-family="Times-12" font-size="14.00"> &#160;Providers</text>
<polygon fill="#fb8072" stroke="transparent" points="772.5,-10 772.5,-30 792.5,-30 792.5,-10 772.5,-10"/>
<text text-anchor="start" x="796.23" y="-15.4" font-family="Times-12" font-size="14.00"> &#160;Exports</text>
<g id="clust1" class="cluster">
<title>cluster_AiModule</title>
<polygon fill="none" stroke="black" stroke-dasharray="1,5" points="8,-70 8,-198 327,-198 327,-70 8,-70"/>
</g>
<g id="clust6" class="cluster">
<title>cluster_AiModule_providers</title>
<polygon fill="none" stroke="black" points="16,-78 16,-130 319,-130 319,-78 16,-78"/>
</g>
<g id="clust7" class="cluster">
<title>cluster_AppModule</title>
<polygon fill="none" stroke="black" stroke-dasharray="1,5" points="335,-70 335,-263 703,-263 703,-70 335,-70"/>
</g>
<g id="clust9" class="cluster">
<title>cluster_AppModule_imports</title>
<polygon fill="none" stroke="black" points="495,-78 495,-198 695,-198 695,-78 495,-78"/>
</g>
<g id="clust12" class="cluster">
<title>cluster_AppModule_providers</title>
<polygon fill="none" stroke="black" points="343,-146 343,-198 473,-198 473,-146 343,-146"/>
</g>
<g id="clust13" class="cluster">
<title>cluster_GoogleAuthenticationModule</title>
<polygon fill="none" stroke="black" stroke-dasharray="1,5" points="711,-70 711,-138 1221,-138 1221,-70 711,-70"/>
</g>
<g id="clust18" class="cluster">
<title>cluster_GoogleAuthenticationModule_providers</title>
<polygon fill="none" stroke="black" points="719,-78 719,-130 1213,-130 1213,-78 719,-78"/>
</g>
<!-- AiService -->
<g id="node1" class="node">
<title>AiService</title>
<ellipse fill="#fdb462" stroke="black" cx="261" cy="-104" rx="49.79" ry="18"/>
<text text-anchor="middle" x="261" y="-99.8" font-family="Times,serif" font-size="14.00">AiService</text>
</g>
<!-- AiModule -->
<g id="node3" class="node">
<title>AiModule</title>
<polygon fill="#8dd3c7" stroke="black" points="297.55,-190 294.55,-194 273.55,-194 270.55,-190 224.45,-190 224.45,-154 297.55,-154 297.55,-190"/>
<text text-anchor="middle" x="261" y="-167.8" font-family="Times,serif" font-size="14.00">AiModule</text>
</g>
<!-- AiService&#45;&gt;AiModule -->
<g id="edge1" class="edge">
<title>AiService&#45;&gt;AiModule</title>
<path fill="none" stroke="black" d="M261,-122.22C261,-122.22 261,-143.73 261,-143.73"/>
<polygon fill="black" stroke="black" points="257.5,-143.73 261,-153.73 264.5,-143.73 257.5,-143.73"/>
</g>
<!-- GenerateQuestions -->
<g id="node2" class="node">
<title>GenerateQuestions</title>
<ellipse fill="#fdb462" stroke="black" cx="109" cy="-104" rx="84.51" ry="18"/>
<text text-anchor="middle" x="109" y="-99.8" font-family="Times,serif" font-size="14.00">GenerateQuestions</text>
</g>
<!-- GenerateQuestions&#45;&gt;AiModule -->
<g id="edge2" class="edge">
<title>GenerateQuestions&#45;&gt;AiModule</title>
<path fill="none" stroke="black" d="M109,-122.22C109,-142.37 109,-172 109,-172 109,-172 214.21,-172 214.21,-172"/>
<polygon fill="black" stroke="black" points="214.21,-175.5 224.21,-172 214.21,-168.5 214.21,-175.5"/>
</g>
<!-- AppModule -->
<g id="node6" class="node">
<title>AppModule</title>
<polygon fill="#8dd3c7" stroke="black" points="487.66,-255 484.66,-259 463.66,-259 460.66,-255 404.34,-255 404.34,-219 487.66,-219 487.66,-255"/>
<text text-anchor="middle" x="446" y="-232.8" font-family="Times,serif" font-size="14.00">AppModule</text>
</g>
<!-- AiModule&#45;&gt;AppModule -->
<g id="edge3" class="edge">
<title>AiModule&#45;&gt;AppModule</title>
<path fill="none" stroke="black" d="M261,-190.11C261,-209.34 261,-237 261,-237 261,-237 394.02,-237 394.02,-237"/>
<polygon fill="black" stroke="black" points="394.02,-240.5 404.02,-237 394.02,-233.5 394.02,-240.5"/>
</g>
<!-- GoogleAuthenticationModule -->
<g id="node4" class="node">
<title>GoogleAuthenticationModule</title>
<polygon fill="#8dd3c7" stroke="black" points="686.97,-190 683.97,-194 662.97,-194 659.97,-190 503.03,-190 503.03,-154 686.97,-154 686.97,-190"/>
<text text-anchor="middle" x="595" y="-167.8" font-family="Times,serif" font-size="14.00">GoogleAuthenticationModule</text>
</g>
<!-- GoogleAuthenticationModule&#45;&gt;AppModule -->
<g id="edge4" class="edge">
<title>GoogleAuthenticationModule&#45;&gt;AppModule</title>
<path fill="none" stroke="black" d="M502.79,-172C489.44,-172 480.09,-172 480.09,-172 480.09,-172 480.09,-208.89 480.09,-208.89"/>
<polygon fill="black" stroke="black" points="476.59,-208.89 480.09,-218.89 483.59,-208.89 476.59,-208.89"/>
</g>
<!-- JwtAuthModule -->
<g id="node5" class="node">
<title>JwtAuthModule</title>
<polygon fill="#8dd3c7" stroke="black" points="628.49,-122 625.49,-126 604.49,-126 601.49,-122 521.51,-122 521.51,-86 628.49,-86 628.49,-122"/>
<text text-anchor="middle" x="575" y="-99.8" font-family="Times,serif" font-size="14.00">JwtAuthModule</text>
</g>
<!-- JwtAuthModule&#45;&gt;GoogleAuthenticationModule -->
<g id="edge7" class="edge">
<title>JwtAuthModule&#45;&gt;GoogleAuthenticationModule</title>
<path fill="none" stroke="black" d="M575,-122.22C575,-122.22 575,-143.73 575,-143.73"/>
<polygon fill="black" stroke="black" points="571.5,-143.73 575,-153.73 578.5,-143.73 571.5,-143.73"/>
</g>
<!-- JwtAuthModule&#45;&gt;AppModule -->
<g id="edge5" class="edge">
<title>JwtAuthModule&#45;&gt;AppModule</title>
<path fill="none" stroke="black" d="M521.27,-104C496.44,-104 472.36,-104 472.36,-104 472.36,-104 472.36,-208.79 472.36,-208.79"/>
<polygon fill="black" stroke="black" points="468.86,-208.79 472.36,-218.79 475.86,-208.79 468.86,-208.79"/>
</g>
<!-- AppService -->
<g id="node7" class="node">
<title>AppService</title>
<ellipse fill="#fdb462" stroke="black" cx="408" cy="-172" rx="56.74" ry="18"/>
<text text-anchor="middle" x="408" y="-167.8" font-family="Times,serif" font-size="14.00">AppService</text>
</g>
<!-- AppService&#45;&gt;AppModule -->
<g id="edge6" class="edge">
<title>AppService&#45;&gt;AppModule</title>
<path fill="none" stroke="black" d="M434.4,-188.07C434.4,-188.07 434.4,-208.82 434.4,-208.82"/>
<polygon fill="black" stroke="black" points="430.9,-208.82 434.4,-218.82 437.9,-208.82 430.9,-208.82"/>
</g>
<!-- GenerateTokenProvider -->
<g id="node8" class="node">
<title>GenerateTokenProvider</title>
<ellipse fill="#fdb462" stroke="black" cx="1101" cy="-104" rx="103.61" ry="18"/>
<text text-anchor="middle" x="1101" y="-99.8" font-family="Times,serif" font-size="14.00">GenerateTokenProvider</text>
</g>
<!-- GenerateTokenProvider&#45;&gt;GoogleAuthenticationModule -->
<g id="edge8" class="edge">
<title>GenerateTokenProvider&#45;&gt;GoogleAuthenticationModule</title>
<path fill="none" stroke="black" d="M1101,-122.22C1101,-142.37 1101,-172 1101,-172 1101,-172 697.22,-172 697.22,-172"/>
<polygon fill="black" stroke="black" points="697.22,-168.5 687.22,-172 697.22,-175.5 697.22,-168.5"/>
</g>
<!-- GoogleAuthenticationService -->
<g id="node9" class="node">
<title>GoogleAuthenticationService</title>
<ellipse fill="#fdb462" stroke="black" cx="853" cy="-104" rx="125.62" ry="18"/>
<text text-anchor="middle" x="853" y="-99.8" font-family="Times,serif" font-size="14.00">GoogleAuthenticationService</text>
</g>
<!-- GoogleAuthenticationService&#45;&gt;GoogleAuthenticationModule -->
<g id="edge9" class="edge">
<title>GoogleAuthenticationService&#45;&gt;GoogleAuthenticationModule</title>
<path fill="none" stroke="black" d="M727.13,-104C689.35,-104 657.74,-104 657.74,-104 657.74,-104 657.74,-143.78 657.74,-143.78"/>
<polygon fill="black" stroke="black" points="654.24,-143.78 657.74,-153.78 661.24,-143.78 654.24,-143.78"/>
</g>
</g>
</svg>
